<?xml version="1.0" encoding="iso-8859-1"?>
<!-- Generator: Adobe Illustrator 16.0.0, SVG Export Plug-In . SVG Version: 6.00 Build 0)  -->
<!DOCTYPE svg PUBLIC "-//W3C//DTD SVG 1.1//EN" "http://www.w3.org/Graphics/SVG/1.1/DTD/svg11.dtd">
<svg xmlns="http://www.w3.org/2000/svg" xmlns:xlink="http://www.w3.org/1999/xlink" version="1.1" id="Capa_1" x="0px" y="0px" width="512px" height="512px" viewBox="0 0 284.628 284.628" style="enable-background:new 0 0 284.628 284.628;" xml:space="preserve">
<g>
	<g>
		<path d="M228.297,201.424c-15.937,0-28.846,12.92-28.846,28.841c0,15.931,12.909,28.851,28.846,28.851    c15.926,0,28.835-12.92,28.835-28.851C257.132,214.344,244.223,201.424,228.297,201.424z M228.297,247.065    c-9.286,0-16.801-7.525-16.801-16.801c0-9.276,7.52-16.796,16.801-16.796c9.271,0,16.791,7.524,16.791,16.796    C245.088,239.551,237.568,247.065,228.297,247.065z" fill="#FFFFFF"/>
		<path d="M68.386,255.94c15.928,0,28.84-12.914,28.84-28.846c0-15.926-12.912-28.841-28.84-28.841    c-15.931,0-28.843,12.915-28.843,28.841C39.542,243.026,52.455,255.94,68.386,255.94z M68.386,210.305    c9.276,0,16.798,7.52,16.798,16.79c0,9.281-7.522,16.802-16.798,16.802c-9.279,0-16.801-7.521-16.801-16.802    C51.584,217.818,59.107,210.305,68.386,210.305z" fill="#FFFFFF"/>
		<path d="M263.471,223.53v-27.095H120.604v27.095h77.741c2.711-14.196,15.209-24.954,30.186-24.954    c14.971,0,27.475,10.758,30.195,24.954H263.471z" fill="#FFFFFF"/>
		<path d="M120.604,190.444h164.025V25.513H120.604V190.444z M264.89,96.211c0.11-0.087,0.242-0.14,0.39-0.174    c0.143-0.026,0.386-0.042,0.749-0.042h3.56c0.67,0,1.002,0.269,1.002,0.804c0,0.195-0.042,0.346-0.132,0.448    c-0.1,0.108-0.269,0.216-0.532,0.335c-0.464,0.211-0.802,0.422-1.008,0.63c-0.29,0.309-0.532,0.659-0.722,1.05L267.87,100    l-2.405,5.276l-0.807-1.891l1.514-3.385c0.127-0.29,0.18-0.686,0.18-1.182c0-0.562-0.307-0.962-0.918-1.199    c-0.332-0.135-0.554-0.253-0.654-0.351c-0.1-0.097-0.147-0.258-0.147-0.469C264.631,96.54,264.716,96.345,264.89,96.211z     M254.275,95.995h7.056c0.374,0,0.633,0.042,0.785,0.129c0.237,0.15,0.354,0.355,0.354,0.604c0,0.309-0.132,0.546-0.411,0.72    l-0.422,0.259c-0.158,0.103-0.242,0.264-0.242,0.475c0,0.242,0.053,0.479,0.158,0.706l3.354,7.758v6.278    c0,0.375,0.074,0.643,0.216,0.804c0.079,0.098,0.148,0.158,0.217,0.179c0.073,0.026,0.284,0.087,0.659,0.179    c0.464,0.101,0.696,0.372,0.696,0.794c0,0.279-0.132,0.49-0.386,0.63c-0.158,0.098-0.453,0.143-0.896,0.143h-0.495h-6.423h-0.475    c-0.433,0-0.738-0.061-0.907-0.169c-0.253-0.155-0.375-0.355-0.375-0.604c0-0.422,0.228-0.693,0.691-0.794    c0.369-0.098,0.591-0.153,0.659-0.179c0.068-0.021,0.132-0.087,0.205-0.179c0.138-0.161,0.217-0.43,0.217-0.804v-4.865    l-4.087-9.725c-0.147-0.369-0.364-0.633-0.639-0.796c-0.269-0.161-0.427-0.29-0.501-0.382c-0.073-0.098-0.105-0.232-0.105-0.404    C253.177,96.242,253.537,95.995,254.275,95.995z M242.63,95.995h0.375c1.06,0,1.967,0.042,2.727,0.113    c1.112,0.103,2.109,0.469,2.979,1.097c1.26,0.891,1.893,2.159,1.893,3.812c0,1.36-0.422,2.465-1.271,3.33    c-0.354,0.361-0.775,0.659-1.25,0.892c-0.475,0.231-1.197,0.49-2.162,0.777c0.875,0.129,1.561,0.279,2.035,0.443    c0.48,0.161,0.907,0.382,1.287,0.664c0.411,0.301,0.717,0.654,0.928,1.062c0.222,0.417,0.327,0.85,0.327,1.313v2.979    c0,0.313,0.105,0.467,0.306,0.467c0.079,0,0.138-0.024,0.19-0.066c0.053-0.05,0.126-0.129,0.222-0.253    c0.242-0.324,0.484-0.493,0.738-0.493c0.168,0,0.332,0.087,0.495,0.261c0.158,0.171,0.243,0.34,0.243,0.517    c0,0.303-0.138,0.664-0.422,1.091c-0.285,0.427-0.639,0.804-1.055,1.144c-0.401,0.319-0.823,0.546-1.287,0.681    c-0.464,0.14-1.007,0.211-1.624,0.211c-1.271,0-2.257-0.361-2.975-1.086c-0.712-0.728-1.065-1.732-1.065-3.035V109.5    c0-0.541,0-0.849-0.01-0.941c-0.053-0.382-0.19-0.717-0.401-0.991c-0.284-0.335-0.686-0.535-1.202-0.591v-1.542    c0.517-0.077,0.886-0.211,1.107-0.401c0.189-0.171,0.327-0.366,0.396-0.588c0.079-0.222,0.11-0.546,0.11-0.983v-3.818    c0-0.604-0.115-1.052-0.348-1.355c-0.237-0.295-0.659-0.536-1.276-0.707v-1.587H242.63z M234.921,97.88    c-0.063-0.087-0.116-0.143-0.164-0.164c-0.053-0.026-0.237-0.092-0.554-0.195c-0.385-0.124-0.574-0.383-0.574-0.783    c0-0.237,0.089-0.419,0.279-0.557c0.189-0.129,0.453-0.192,0.802-0.192h0.379h6.407v16.928c0,0.372,0.079,0.644,0.217,0.804    c0.084,0.098,0.147,0.158,0.216,0.179c0.068,0.026,0.29,0.087,0.665,0.18c0.458,0.1,0.69,0.372,0.69,0.793    c0,0.248-0.127,0.448-0.369,0.604c-0.189,0.113-0.485,0.168-0.907,0.168h-0.495h-6.424h-0.379c-0.349,0-0.612-0.066-0.802-0.195    c-0.19-0.124-0.279-0.314-0.279-0.557c0-0.39,0.189-0.654,0.574-0.772c0.316-0.103,0.501-0.174,0.554-0.195    c0.059-0.026,0.111-0.079,0.164-0.161c0.115-0.158,0.168-0.401,0.168-0.741V98.613C235.089,98.278,235.037,98.03,234.921,97.88z     M231.461,110.573v5.083h-5.99v-1.556c0.622-0.097,1.145-0.227,1.55-0.4c0.401-0.171,0.812-0.438,1.234-0.799    c0.411-0.351,0.738-0.723,0.991-1.097c0.243-0.377,0.475-0.884,0.696-1.506c0.105-0.309,0.216-0.52,0.327-0.628    c0.121-0.113,0.274-0.16,0.475-0.16c0.274,0,0.464,0.081,0.564,0.237C231.419,109.903,231.461,110.18,231.461,110.573z     M225.46,95.995h5.801v5.097c0,0.303-0.063,0.52-0.169,0.649c-0.116,0.134-0.306,0.205-0.548,0.205    c-0.211,0-0.364-0.05-0.465-0.132c-0.1-0.089-0.189-0.264-0.273-0.532c-0.369-1.118-0.902-1.967-1.608-2.555    c-0.707-0.583-1.619-0.934-2.742-1.047v-1.685H225.46z M225.386,104.807c0.554-0.269,0.971-0.557,1.234-0.881    c0.274-0.319,0.464-0.738,0.591-1.263c0.073-0.361,0.179-0.614,0.301-0.757c0.121-0.14,0.3-0.208,0.532-0.208    c0.316,0,0.527,0.116,0.633,0.356c0.074,0.124,0.105,0.409,0.105,0.852v5.487c0,0.453-0.053,0.767-0.147,0.938    c-0.105,0.174-0.285,0.261-0.56,0.261c-0.221,0-0.39-0.071-0.521-0.2c-0.121-0.134-0.222-0.355-0.301-0.675    c-0.163-0.665-0.396-1.179-0.701-1.529c-0.301-0.361-0.691-0.588-1.176-0.707v-1.674H225.386z M217.608,97.88    c-0.058-0.087-0.11-0.143-0.163-0.164c-0.058-0.026-0.242-0.092-0.554-0.195c-0.385-0.124-0.575-0.383-0.575-0.783    c0-0.237,0.096-0.419,0.285-0.557c0.18-0.129,0.453-0.192,0.802-0.192h0.374h6.402v19.667h-6.402h-0.374    c-0.349,0-0.612-0.065-0.802-0.195c-0.189-0.124-0.285-0.314-0.285-0.556c0-0.388,0.19-0.654,0.575-0.772    c0.316-0.103,0.501-0.174,0.554-0.195c0.053-0.026,0.11-0.079,0.163-0.161c0.111-0.155,0.169-0.4,0.169-0.741V98.613    C217.777,98.278,217.719,98.03,217.608,97.88z M209.308,96.206c0.211-0.142,0.512-0.211,0.881-0.211h3.522    c0.442,0,0.732,0.042,0.864,0.129c0.232,0.14,0.343,0.351,0.343,0.614c0,0.185-0.031,0.324-0.1,0.433    c-0.074,0.107-0.211,0.205-0.396,0.292l-0.744,0.341c-0.306,0.145-0.596,0.432-0.886,0.856c-0.274,0.427-0.495,0.92-0.653,1.466    l-2.32,8.427l-0.76-2.706l1.656-6.064c0.105-0.382,0.163-0.619,0.168-0.706c0.021-0.211-0.026-0.448-0.137-0.707    c-0.153-0.335-0.4-0.562-0.717-0.664l-0.485-0.174c-0.369-0.119-0.56-0.367-0.56-0.733    C208.986,96.54,209.097,96.34,209.308,96.206z M198.102,96.182c0.2-0.124,0.538-0.187,0.991-0.187h6.418    c0.4,0,0.68,0.01,0.828,0.032c0.147,0.016,0.269,0.061,0.369,0.118c0.095,0.066,0.168,0.158,0.242,0.288    c0.068,0.129,0.095,0.248,0.095,0.361c0,0.351-0.169,0.604-0.506,0.762c-0.253,0.124-0.417,0.253-0.517,0.377    c-0.09,0.129-0.132,0.319-0.132,0.557c0,0.15,0.016,0.287,0.047,0.397l3.338,11.731l-1.365,5.044h-3.792l-5.12-17.215    c-0.085-0.266-0.147-0.438-0.222-0.53c-0.068-0.093-0.169-0.169-0.316-0.237c-0.316-0.124-0.517-0.243-0.606-0.346    c-0.095-0.108-0.143-0.267-0.143-0.478C197.711,96.566,197.838,96.345,198.102,96.182z M188.098,97.88    c-0.058-0.087-0.11-0.143-0.163-0.164c-0.053-0.026-0.237-0.092-0.56-0.195c-0.38-0.124-0.569-0.383-0.569-0.783    c0-0.237,0.095-0.419,0.285-0.557c0.185-0.129,0.453-0.192,0.796-0.192h0.364h6.428h0.375c0.348,0,0.611,0.063,0.801,0.192    c0.18,0.132,0.274,0.319,0.274,0.557c0,0.396-0.189,0.654-0.569,0.783c-0.316,0.103-0.506,0.168-0.559,0.195    c-0.053,0.021-0.111,0.082-0.164,0.164c-0.11,0.15-0.174,0.398-0.174,0.733v14.423c0,0.335,0.063,0.578,0.174,0.741    c0.059,0.087,0.111,0.135,0.164,0.161c0.053,0.021,0.242,0.092,0.559,0.195c0.38,0.118,0.569,0.382,0.569,0.772    c0,0.242-0.095,0.427-0.274,0.556c-0.189,0.129-0.453,0.195-0.801,0.195h-0.375h-6.428h-0.364c-0.354,0-0.611-0.065-0.796-0.195    c-0.19-0.124-0.285-0.314-0.285-0.556c0-0.391,0.189-0.654,0.569-0.772c0.322-0.103,0.507-0.174,0.56-0.195    c0.053-0.026,0.115-0.079,0.163-0.161c0.11-0.155,0.174-0.4,0.174-0.741V98.613C188.272,98.278,188.219,98.03,188.098,97.88z     M182.023,113.297c0.396-0.319,0.775-0.757,1.107-1.308c0.332-0.557,0.606-1.185,0.817-1.864c0.153-0.527,0.296-0.873,0.422-1.042    c0.132-0.166,0.327-0.253,0.569-0.253c0.27,0,0.47,0.113,0.591,0.335c0.053,0.103,0.09,0.319,0.09,0.638v5.859h-5.5v-1.616    c0.464-0.087,0.838-0.177,1.118-0.285C181.511,113.652,181.765,113.494,182.023,113.297z M172.383,97.88    c-0.058-0.087-0.11-0.143-0.163-0.164c-0.059-0.026-0.243-0.092-0.554-0.195c-0.386-0.124-0.575-0.383-0.575-0.783    c0-0.237,0.095-0.419,0.285-0.557c0.189-0.129,0.453-0.192,0.801-0.192h0.375h6.418h0.495c0.422,0,0.728,0.058,0.907,0.171    c0.253,0.153,0.369,0.351,0.369,0.606c0,0.419-0.227,0.686-0.69,0.789c-0.375,0.087-0.597,0.14-0.659,0.171    c-0.069,0.026-0.138,0.087-0.217,0.174c-0.143,0.167-0.216,0.438-0.216,0.799v16.946h-6.413h-0.374    c-0.354,0-0.606-0.066-0.807-0.195c-0.18-0.124-0.279-0.314-0.279-0.557c0-0.39,0.189-0.654,0.574-0.772    c0.316-0.103,0.501-0.174,0.549-0.195c0.063-0.026,0.116-0.079,0.169-0.161c0.115-0.158,0.174-0.401,0.174-0.741V98.613    C172.557,98.278,172.494,98.03,172.383,97.88z M168.918,110.573v5.083h-5.985v-1.556c0.622-0.097,1.14-0.227,1.545-0.4    c0.412-0.171,0.823-0.438,1.234-0.799c0.411-0.351,0.749-0.723,0.991-1.097c0.248-0.377,0.48-0.884,0.701-1.506    c0.111-0.309,0.217-0.52,0.333-0.628c0.115-0.113,0.273-0.16,0.475-0.16c0.273,0,0.453,0.081,0.563,0.237    C168.876,109.903,168.918,110.18,168.918,110.573z M162.917,95.995h5.801v5.097c0,0.303-0.053,0.52-0.169,0.649    c-0.116,0.134-0.295,0.205-0.548,0.205c-0.211,0-0.364-0.05-0.465-0.132c-0.095-0.089-0.189-0.264-0.273-0.532    c-0.359-1.118-0.902-1.967-1.604-2.555c-0.707-0.583-1.624-0.934-2.747-1.047v-1.685H162.917z M162.843,104.807    c0.56-0.269,0.971-0.557,1.234-0.881c0.274-0.319,0.47-0.738,0.591-1.263c0.079-0.361,0.179-0.614,0.306-0.757    c0.116-0.14,0.306-0.208,0.538-0.208c0.306,0,0.517,0.116,0.633,0.356c0.063,0.124,0.095,0.409,0.095,0.852v5.487    c0,0.453-0.042,0.767-0.147,0.938c-0.105,0.174-0.285,0.261-0.56,0.261c-0.221,0-0.385-0.071-0.517-0.2    c-0.126-0.134-0.222-0.355-0.306-0.675c-0.158-0.665-0.396-1.179-0.696-1.529c-0.306-0.361-0.696-0.588-1.181-0.707v-1.674    H162.843z M155.065,97.88c-0.058-0.087-0.11-0.143-0.163-0.164c-0.053-0.026-0.232-0.092-0.559-0.195    c-0.386-0.124-0.58-0.383-0.58-0.783c0-0.237,0.095-0.419,0.284-0.557c0.19-0.129,0.454-0.192,0.797-0.192h0.374h6.412v19.667    h-6.412h-0.374c-0.343,0-0.606-0.065-0.797-0.195c-0.189-0.124-0.284-0.314-0.284-0.556c0-0.388,0.189-0.654,0.58-0.772    c0.326-0.103,0.506-0.174,0.559-0.195c0.053-0.026,0.105-0.079,0.163-0.161c0.111-0.155,0.175-0.4,0.175-0.741V98.613    C155.24,98.278,155.176,98.03,155.065,97.88z M143.786,114.101c0.397-0.103,0.686-0.2,0.841-0.287    c0.158-0.092,0.298-0.222,0.411-0.403c0.14-0.211,0.243-0.448,0.298-0.715c0.048-0.264,0.079-0.651,0.079-1.16v-11.361    c0-0.707-0.107-1.258-0.306-1.669c-0.118-0.269-0.276-0.47-0.461-0.588c-0.183-0.124-0.47-0.232-0.862-0.324v-1.598    c0.506,0,0.943,0.021,1.294,0.058c1.222,0.134,2.397,0.654,3.547,1.556c1.129,0.875,1.967,2.015,2.521,3.414    c0.56,1.424,0.844,3.001,0.844,4.73c0,1.954-0.354,3.691-1.075,5.221c-0.718,1.524-1.751,2.721-3.096,3.597    c-0.654,0.422-1.261,0.707-1.83,0.865c-0.559,0.15-1.292,0.227-2.204,0.227V114.101z M135.933,97.88    c-0.061-0.087-0.113-0.143-0.161-0.164c-0.061-0.026-0.24-0.092-0.556-0.195c-0.38-0.124-0.572-0.383-0.572-0.783    c0-0.237,0.095-0.419,0.279-0.557c0.19-0.129,0.454-0.192,0.804-0.192h0.375h6.415v19.667h-6.415h-0.375    c-0.351,0-0.609-0.065-0.804-0.195c-0.185-0.124-0.279-0.314-0.279-0.556c0-0.388,0.192-0.654,0.572-0.772    c0.324-0.103,0.501-0.174,0.556-0.195c0.053-0.026,0.108-0.079,0.161-0.161c0.113-0.155,0.174-0.4,0.174-0.741V98.613    C136.107,98.278,136.046,98.03,135.933,97.88z M134.636,119.332H272.9v6.022H134.636V119.332z" fill="#FFFFFF"/>
		<path d="M37.863,223.53c1.479-15.578,14.639-27.812,30.602-27.812c15.963,0,29.123,12.239,30.602,27.812h16.94V70.521    c0-2.624-2.127-4.757-4.751-4.757H66.248c-2.626,0-5.967,1.751-7.465,3.91L6.829,144.587c-1.495,2.156-2.71,6.032-2.71,8.664    v41.528H2.062c-1.139,0-2.062,2.125-2.062,4.757v19.248c0,2.626,2.133,4.751,4.751,4.751h33.112V223.53z M103.96,150.076    c0,1.05-0.849,1.904-1.901,1.904H85.261c-1.049,0-1.906-0.854-1.906-1.904c0-1.049,0.852-1.903,1.906-1.903h16.798    C103.111,148.184,103.96,149.027,103.96,150.076z M51.996,101.022c1.835-1.88,5.6-3.245,8.224-3.245h37.083    c2.624,0,4.756,2.133,4.756,4.756v4.751c0,2.623-1.339,6.404-2.992,8.45l-24.77,30.645c-1.653,2.035-5.112,3.696-7.744,3.696    H36.445c-2.626,0-4.775-2.125-4.596-4.751C33.42,122.67,45.818,107.335,51.996,101.022z" fill="#FFFFFF"/>
	</g>
</g>
<g>
</g>
<g>
</g>
<g>
</g>
<g>
</g>
<g>
</g>
<g>
</g>
<g>
</g>
<g>
</g>
<g>
</g>
<g>
</g>
<g>
</g>
<g>
</g>
<g>
</g>
<g>
</g>
<g>
</g>
</svg>
